# xmcd CD database file
#
# Track frame offsets:
#	150
#	13132
#	38673
#	50538
#	68596
#	80018
#	86394
#
# Disc length: 1475 seconds
#
# Revision: 0
# Processed by: cddbd v1.5.2PL0 Copyright (c) Steve Scherf et al.
# Submitted via: CDex 1.70beta3
#
DISCID=4d05c107
DTITLE=竹達彩名　寿美菜子　戸松遙　能登麻美子 - 東京自転車少女
DYEAR=2011
DGENRE=ドラマCD
TTITLE0=東京自転車少女　1巻
TTITLE1=東京自転車少女　1巻
TTITLE2=東京自転車少女　1巻
TTITLE3=東京自転車少女　1巻
TTITLE4=東京自転車少女　1巻
TTITLE5=東京自転車少女　1巻
TTITLE6=東京自転車少女　1巻
EXTD=YEAR: 2011
EXTT0=
EXTT1=
EXTT2=
EXTT3=
EXTT4=
EXTT5=
EXTT6=
PLAYORDER=
